<svg xmlns="http://www.w3.org/2000/svg" width="136" height="23" viewBox="0 0 136 23" fill="none">
  <path d="M0 0.679688H28.63C33.9007 0.679688 38.1733 4.95239 38.1733 10.223H0V0.679688Z" fill="white"/>
  <path d="M0 22.053H28.63C33.9007 22.053 38.1733 17.7804 38.1733 12.5098H0V22.053Z" fill="white"/>
  <path d="M45.1584 18.573V4.19977H49.7579C54.2546 4.19977 56.9855 7.07441 56.9855 11.3864C56.9855 15.6778 54.2546 18.573 49.7579 18.573H45.1584ZM46.9447 16.9304H49.7579C53.2485 16.9304 55.1581 14.7333 55.1581 11.3864C55.1581 8.01895 53.2485 5.84242 49.7579 5.84242H46.9447V16.9304ZM63.1978 18.6963C60.0562 18.6963 58.0029 16.5402 58.0029 13.337C58.0029 10.1544 60.0152 7.97788 62.9719 7.97788C65.9287 7.97788 67.8588 9.84641 67.9409 12.9469C67.9409 13.1728 67.9204 13.4191 67.8999 13.6656H59.7687V13.8093C59.8303 15.801 61.0828 17.1973 63.0746 17.1973C64.553 17.1973 65.7029 16.417 66.0519 15.0618H67.7562C67.3455 17.1562 65.6207 18.6963 63.1978 18.6963ZM59.8714 12.2694H66.134C65.9698 10.4624 64.7378 9.45624 62.9924 9.45624C61.4525 9.45624 60.0357 10.5651 59.8714 12.2694ZM74.0716 18.6963C70.93 18.6963 68.8767 16.5402 68.8767 13.337C68.8767 10.1544 70.8889 7.97788 73.8457 7.97788C76.8025 7.97788 78.7326 9.84641 78.8147 12.9469C78.8147 13.1728 78.7942 13.4191 78.7737 13.6656H70.6425V13.8093C70.7041 15.801 71.9567 17.1973 73.9484 17.1973C75.4268 17.1973 76.5766 16.417 76.9257 15.0618H78.63C78.2193 17.1562 76.4945 18.6963 74.0716 18.6963ZM70.7452 12.2694H77.0078C76.8435 10.4624 75.6115 9.45624 73.8662 9.45624C72.3262 9.45624 70.9094 10.5651 70.7452 12.2694ZM85.3971 7.97788C88.2923 7.97788 90.4277 9.92853 90.4277 13.337C90.4277 16.5402 88.2923 18.6963 85.3971 18.6963C83.6312 18.6963 82.4403 17.9775 81.8037 16.9714V22.6797H80.12V8.10108H81.5779L81.8037 9.78482C82.5019 8.81974 83.6312 7.97788 85.3971 7.97788ZM81.7832 13.296C81.7832 15.5957 83.1795 17.1973 85.2328 17.1973C87.3067 17.1973 88.7029 15.6163 88.7029 13.337C88.7029 11.0579 87.3067 9.47677 85.2328 9.47677C83.1795 9.47677 81.7832 11.0579 81.7832 13.296ZM97.0741 4.19977C100.134 4.19977 101.838 5.67816 101.838 7.99842C101.838 9.64111 100.934 10.6472 99.5792 11.1195C101.099 11.4069 102.434 12.3925 102.434 14.4664C102.434 17.0125 100.626 18.573 97.2182 18.573H91.9821V4.19977H97.0741ZM93.7685 16.9509H97.2182C99.436 16.9509 100.606 16.0269 100.606 14.5485C100.606 12.9264 99.3531 12.0434 97.2182 12.0434H93.7685V16.9509ZM93.7685 10.4419H97.156C99.0047 10.4419 100.052 9.57952 100.052 8.12162C100.052 6.68428 99.0254 5.82189 97.156 5.82189H93.7685V10.4419ZM108.638 17.1973C110.712 17.1973 112.108 15.5752 112.108 13.337C112.108 11.0989 110.712 9.47677 108.638 9.47677C106.564 9.47677 105.168 11.0989 105.168 13.337C105.168 15.5752 106.564 17.1973 108.638 17.1973ZM103.443 13.337C103.443 10.1544 105.578 7.97788 108.638 7.97788C111.698 7.97788 113.833 10.1544 113.833 13.337C113.833 16.5197 111.698 18.6963 108.638 18.6963C105.578 18.6963 103.443 16.5197 103.443 13.337ZM119.973 17.1973C122.047 17.1973 123.443 15.5752 123.443 13.337C123.443 11.0989 122.047 9.47677 119.973 9.47677C117.899 9.47677 116.502 11.0989 116.502 13.337C116.502 15.5752 117.899 17.1973 119.973 17.1973ZM114.778 13.337C114.778 10.1544 116.913 7.97788 119.973 7.97788C123.033 7.97788 125.168 10.1544 125.168 13.337C125.168 16.5197 123.033 18.6963 119.973 18.6963C116.913 18.6963 114.778 16.5197 114.778 13.337ZM126.482 4.19977H128.166V13.6656L133.423 8.10108H135.497L131.41 12.4336L135.784 18.573H133.752L130.281 13.6451L128.166 15.8216V18.573H126.482V4.19977Z" fill="white"/>
</svg>